<svg width="24" height="24" viewBox="0 0 24 24" fill="none" xmlns="http://www.w3.org/2000/svg">
<path d="M16.4 20.1H3.6C2.2 20.1 1 18.9 1 17.5V10.2C1 8.79998 2.2 7.59998 3.6 7.59998H16.4C17.8 7.59998 19 8.79998 19 10.2V17.5C19 18.9 17.8 20.1 16.4 20.1ZM3.6 9.59998C3.3 9.59998 3 9.89998 3 10.2V17.5C3 17.8 3.3 18.1 3.6 18.1H16.4C16.7 18.1 17 17.8 17 17.5V10.2C17 9.89998 16.7 9.59998 16.4 9.59998H3.6Z" fill="black"/>
<path d="M22 16.1C21.4 16.1 21 15.7 21 15.1V6.7C21 6.3 20.8 6 20.5 6H5.09998C4.49998 6 4.09998 5.6 4.09998 5C4.09998 4.4 4.49998 4 5.09998 4H20.5C21.9 4 23 5.2 23 6.7V15.1C23 15.6 22.6 16.1 22 16.1Z" fill="black"/>
<path d="M10 17C8.20005 17 6.80005 15.6 6.80005 13.8C6.80005 12 8.20005 10.6 10 10.6C11.8001 10.6 13.2001 12 13.2001 13.8C13.2001 15.6 11.8001 17 10 17ZM10 12.7C9.30005 12.7 8.80005 13.2 8.80005 13.9C8.80005 14.6 9.30005 15 10 15C10.7001 15 11.2001 14.5 11.2001 13.8C11.2001 13.1 10.7001 12.7 10 12.7Z" fill="black"/>
<path d="M4.89995 14.5C5.28655 14.5 5.59995 14.1866 5.59995 13.8C5.59995 13.4134 5.28655 13.1 4.89995 13.1C4.51335 13.1 4.19995 13.4134 4.19995 13.8C4.19995 14.1866 4.51335 14.5 4.89995 14.5Z" fill="black"/>
<path d="M15.1 14.5C15.4866 14.5 15.8 14.1866 15.8 13.8C15.8 13.4134 15.4866 13.1 15.1 13.1C14.7134 13.1 14.4 13.4134 14.4 13.8C14.4 14.1866 14.7134 14.5 15.1 14.5Z" fill="black"/>
</svg>
