<svg fill="none" height="68" viewBox="0 0 24 24" width="68" xmlns="http://www.w3.org/2000/svg"><path clip-rule="evenodd" d="m18.3939 5.74002-5.2121-2.23378c-.7547-.32342-1.6089-.32342-2.3636 0l-5.21212 2.23378c-.36768.15758-.60608.51912-.60608.91915v5.25293c0 1.9377.93579 3.7561 2.51257 4.8824l3.32493 2.3749c.6954.4967 1.6296.4967 2.325 0l3.3249-2.3749c1.5768-1.1263 2.5126-2.9447 2.5126-4.8824v-5.25293c0-.40003-.2384-.76157-.6061-.91915zm-2.613 3.88467c.345-.43126.2751-1.06055-.1562-1.40556s-1.0606-.27509-1.4056.15618l-3.302 4.12759-1.20999-1.21c-.39053-.3905-1.02369-.3905-1.41422 0-.39052.3905-.39052 1.0237 0 1.4142l1.60499 1.605c.63212.6322 1.67352.5745 2.23192-.1236z" fill="#222" fill-rule="evenodd"/></svg>
