<svg width="24" height="24" viewBox="0 0 24 24" fill="none" xmlns="http://www.w3.org/2000/svg">
<path d="M12.4 9.9C16.5 9.9 19.8 7.9 19.8 5.4C19.8 2.9 16.5 1 12.4 1C8.2 1 5 3 5 5.5C5 8 8.2 9.9 12.4 9.9ZM12.4 3C15.5 3 17.8 4.3 17.8 5.5C17.8 6.7 15.5 8 12.4 8C9.3 7.9 7 6.6 7 5.5C7 4.4 9.3 3 12.4 3Z" fill="black"/>
<path d="M18.9001 9.69999C18.4001 9.39999 17.8001 9.59999 17.5001 9.99999C17.0001 11 15.0001 11.9 12.4001 11.9C9.70005 11.9 7.80005 11 7.20005 9.99999C6.90005 9.59999 6.30005 9.39999 5.80005 9.69999C5.30005 9.99999 5.20005 10.6 5.50005 11.1C6.60005 12.8 9.30005 13.9 12.4001 13.9C15.5001 13.9 18.2001 12.8 19.3001 11.1C19.5001 10.6 19.4001 9.99999 18.9001 9.69999Z" fill="black"/>
<path d="M18.8999 14.2C18.3999 13.9 17.7999 14.1 17.4999 14.5C16.8999 15.4 14.9999 16.4 12.2999 16.4C9.69995 16.4 7.69995 15.5 7.09995 14.5C6.79995 14 6.19995 13.9 5.69995 14.2C5.19995 14.5 5.09995 15.1 5.39995 15.6C6.49995 17.3 9.19995 18.4 12.2999 18.4C15.3999 18.4 18.0999 17.3 19.1999 15.6C19.4999 15.1 19.3999 14.5 18.8999 14.2Z" fill="black"/>
<path d="M18.9001 18.8C18.4001 18.5 17.8001 18.7 17.5001 19.1C17.0001 20.1 15.0001 21 12.4001 21C9.80005 21 7.80005 20.1 7.20005 19.1C6.90005 18.6 6.30005 18.5 5.80005 18.8C5.30005 19.1 5.20005 19.7 5.50005 20.2C6.50005 21.9 9.20005 23 12.4001 23C15.5001 23 18.2001 21.9 19.3001 20.2C19.5001 19.7 19.4001 19.1 18.9001 18.8Z" fill="black"/>
</svg>
