<svg width="24" height="24" viewBox="0 0 25 24" fill="none" xmlns="http://www.w3.org/2000/svg">
<path d="M12.9 9.9C17 9.9 20.3 7.9 20.3 5.4C20.3 2.9 17 1 12.9 1C8.7 1 5.5 3 5.5 5.5C5.5 8 8.7 9.9 12.9 9.9ZM12.9 3C16 3 18.3 4.3 18.3 5.5C18.3 6.7 16 8 12.9 8C9.8 7.9 7.5 6.6 7.5 5.5C7.5 4.4 9.8 3 12.9 3Z" fill="#7E9FFF"/>
<path d="M19.4001 9.69999C18.9001 9.39999 18.3001 9.59999 18.0001 9.99999C17.5001 11 15.5001 11.9 12.9001 11.9C10.2 11.9 8.30005 11 7.70005 9.99999C7.40005 9.59999 6.80005 9.39999 6.30005 9.69999C5.80005 9.99999 5.70005 10.6 6.00005 11.1C7.10005 12.8 9.80005 13.9 12.9001 13.9C16.0001 13.9 18.7001 12.8 19.8001 11.1C20.0001 10.6 19.9001 9.99999 19.4001 9.69999Z" fill="#7E9FFF"/>
<path d="M19.3999 14.2C18.8999 13.9 18.2999 14.1 17.9999 14.5C17.3999 15.4 15.4999 16.4 12.7999 16.4C10.2 16.4 8.19995 15.5 7.59995 14.5C7.29995 14 6.69995 13.9 6.19995 14.2C5.69995 14.5 5.59995 15.1 5.89995 15.6C6.99995 17.3 9.69995 18.4 12.7999 18.4C15.8999 18.4 18.5999 17.3 19.6999 15.6C19.9999 15.1 19.8999 14.5 19.3999 14.2Z" fill="#7E9FFF"/>
<path d="M19.4001 18.8C18.9001 18.5 18.3001 18.7 18.0001 19.1C17.5001 20.1 15.5001 21 12.9001 21C10.3 21 8.30005 20.1 7.70005 19.1C7.40005 18.6 6.80005 18.5 6.30005 18.8C5.80005 19.1 5.70005 19.7 6.00005 20.2C7.00005 21.9 9.70005 23 12.9001 23C16.0001 23 18.7001 21.9 19.8001 20.2C20.0001 19.7 19.9001 19.1 19.4001 18.8Z" fill="#7E9FFF"/>
</svg>
