<svg width="21" height="20" viewBox="0 0 21 20" fill="none" xmlns="http://www.w3.org/2000/svg">
<rect x="0.160889" width="20" height="20" rx="10" fill="#DB524E"/>
<path d="M13.2504 10.6912C13.4587 10.4752 13.7964 10.4752 14.0047 10.6912C14.213 10.9071 14.213 11.2572 14.0047 11.4731L10.9151 14.6761C10.4986 15.108 9.8232 15.108 9.40664 14.6761L6.3171 11.4731C6.10882 11.2572 6.10882 10.9071 6.3171 10.6912C6.52538 10.4752 6.86307 10.4752 7.07134 10.6912L9.62755 13.3412L9.62755 5.55292C9.62755 5.24755 9.86634 5 10.1609 5C10.4554 5 10.6942 5.24755 10.6942 5.55292L10.6942 13.3412L13.2504 10.6912Z" fill="white"/>
</svg>
