<svg width="70" height="70" viewBox="0 0 70 70" fill="none" xmlns="http://www.w3.org/2000/svg">
<path d="M59.7916 29.7208H51.3625C44.45 29.7208 38.8208 24.0917 38.8208 17.1792V8.75001C38.8208 7.14584 37.5083 5.83334 35.9041 5.83334H23.5375C14.5541 5.83334 7.29163 11.6667 7.29163 22.0792V47.9208C7.29163 58.3333 14.5541 64.1667 23.5375 64.1667H46.4625C55.4458 64.1667 62.7083 58.3333 62.7083 47.9208V32.6375C62.7083 31.0333 61.3958 29.7208 59.7916 29.7208ZM36.4 45.7917C34.8833 50.6625 29.5458 53.2875 27.7083 53.2875C25.8416 53.2875 20.6208 50.75 19.0166 45.7917C17.9666 42.5542 19.1625 38.325 22.8666 37.1292C24.5583 36.575 26.3666 36.8958 27.6791 37.9167C28.9916 36.8958 30.8 36.575 32.5208 37.1292C36.2541 38.325 37.4208 42.5542 36.4 45.7917Z" fill="#292D32"/>
<path d="M50.8375 25.6958C53.6083 25.725 57.4583 25.725 60.7542 25.725C62.4167 25.725 63.2917 23.7708 62.125 22.6042C57.925 18.375 50.4 10.7625 46.0833 6.44583C44.8875 5.25 42.8167 6.06667 42.8167 7.72917V17.9083C42.8167 22.1667 46.4333 25.6958 50.8375 25.6958Z" fill="#292D32"/>
</svg>
