<svg width="24" height="24" viewBox="0 0 25 24" fill="none" xmlns="http://www.w3.org/2000/svg">
<path d="M12.5 9C11.3954 9 10.5 9.89543 10.5 11C10.5 12.1046 11.3954 13 12.5 13C13.6046 13 14.5 12.1046 14.5 11C14.5 9.89543 13.6046 9 12.5 9Z" fill="#7E9FFF"/>
<path d="M8.5 17.5C8.5 15.8431 9.84315 14.5 11.5 14.5H13.5C15.1569 14.5 16.5 15.8431 16.5 17.5C16.5 18.0523 16.0523 18.5 15.5 18.5H9.5C8.94772 18.5 8.5 18.0523 8.5 17.5Z" fill="#7E9FFF"/>
<path fill-rule="evenodd" clip-rule="evenodd" d="M7.5 2.25C5.98122 2.25 4.75 3.48122 4.75 5V19C4.75 20.5188 5.98122 21.75 7.5 21.75H17.5C19.0188 21.75 20.25 20.5188 20.25 19V8.1979C20.25 7.83178 20.1352 7.47488 19.9217 7.17745L16.9085 2.97955C16.5798 2.52157 16.0506 2.25 15.4868 2.25H7.5ZM6.25 5C6.25 4.30964 6.80964 3.75 7.5 3.75H14.75V8.14705C14.75 8.56126 15.0858 8.89705 15.5 8.89705H18.75V19C18.75 19.6904 18.1904 20.25 17.5 20.25H7.5C6.80964 20.25 6.25 19.6904 6.25 19V5Z" fill="#7E9FFF"/>
</svg>
