<svg width="56" height="56" viewBox="0 0 48 34" fill="none" xmlns="http://www.w3.org/2000/svg">
<path fill-rule="evenodd" clip-rule="evenodd" d="M1.02329 1.41559C0.4375 2.00138 0.4375 2.94419 0.4375 4.8298V29.9532C0.4375 31.8388 0.4375 32.7817 1.02329 33.3674C1.60907 33.9532 2.55188 33.9532 4.4375 33.9532H43.7567C45.6423 33.9532 46.5851 33.9532 47.1709 33.3674C47.7567 32.7817 47.7567 31.8388 47.7567 29.9532V4.8298C47.7567 2.94419 47.7567 2.00138 47.1709 1.41559C46.5851 0.829803 45.6423 0.829803 43.7567 0.829803H4.4375C2.55188 0.829803 1.60907 0.829803 1.02329 1.41559ZM7.53537 6.92768C6.98309 6.92768 6.53537 7.3754 6.53537 7.92768C6.53537 8.47997 6.98309 8.92768 7.53537 8.92768H12.2673C12.8196 8.92768 13.2673 8.47997 13.2673 7.92768C13.2673 7.3754 12.8196 6.92768 12.2673 6.92768H7.53537ZM34.9269 26.8553C34.9269 26.3031 35.3746 25.8553 35.9269 25.8553H40.6588C41.2111 25.8553 41.6588 26.3031 41.6588 26.8553C41.6588 27.4076 41.2111 27.8553 40.6588 27.8553H35.9269C35.3746 27.8553 34.9269 27.4076 34.9269 26.8553ZM29.195 17.3915C29.195 20.207 26.9126 22.4894 24.0971 22.4894C21.2816 22.4894 18.9992 20.207 18.9992 17.3915C18.9992 14.576 21.2816 12.2936 24.0971 12.2936C26.9126 12.2936 29.195 14.576 29.195 17.3915ZM31.195 17.3915C31.195 21.3116 28.0171 24.4894 24.0971 24.4894C20.177 24.4894 16.9992 21.3116 16.9992 17.3915C16.9992 13.4715 20.177 10.2936 24.0971 10.2936C28.0171 10.2936 31.195 13.4715 31.195 17.3915Z" fill="black"/>
</svg>
