<svg width="24" height="24" viewBox="0 0 25 24" fill="none" xmlns="http://www.w3.org/2000/svg">
<path d="M16.9 20.1H4.1C2.7 20.1 1.5 18.9 1.5 17.5V10.2C1.5 8.80001 2.7 7.60001 4.1 7.60001H16.9C18.3 7.60001 19.5 8.80001 19.5 10.2V17.5C19.5 18.9 18.3 20.1 16.9 20.1ZM4.1 9.60001C3.8 9.60001 3.5 9.90001 3.5 10.2V17.5C3.5 17.8 3.8 18.1 4.1 18.1H16.9C17.2 18.1 17.5 17.8 17.5 17.5V10.2C17.5 9.90001 17.2 9.60001 16.9 9.60001H4.1Z" fill="#ACACAC"/>
<path d="M22.5 16.1C21.9 16.1 21.5 15.7 21.5 15.1V6.7C21.5 6.3 21.3 6 21 6H5.59998C4.99998 6 4.59998 5.6 4.59998 5C4.59998 4.4 4.99998 4 5.59998 4H21C22.4 4 23.5 5.2 23.5 6.7V15.1C23.5 15.6 23.1 16.1 22.5 16.1Z" fill="#ACACAC"/>
<path d="M10.5 17C8.70005 17 7.30005 15.6 7.30005 13.8C7.30005 12 8.70005 10.6 10.5 10.6C12.3001 10.6 13.7001 12 13.7001 13.8C13.7001 15.6 12.3001 17 10.5 17ZM10.5 12.7C9.80005 12.7 9.30005 13.2 9.30005 13.9C9.30005 14.6 9.80005 15 10.5 15C11.2001 15 11.7001 14.5 11.7001 13.8C11.7001 13.1 11.2001 12.7 10.5 12.7Z" fill="#ACACAC"/>
<path d="M5.39995 14.5C5.78655 14.5 6.09995 14.1866 6.09995 13.8C6.09995 13.4134 5.78655 13.1 5.39995 13.1C5.01335 13.1 4.69995 13.4134 4.69995 13.8C4.69995 14.1866 5.01335 14.5 5.39995 14.5Z" fill="#ACACAC"/>
<path d="M15.6 14.5C15.9866 14.5 16.3 14.1866 16.3 13.8C16.3 13.4134 15.9866 13.1 15.6 13.1C15.2134 13.1 14.9 13.4134 14.9 13.8C14.9 14.1866 15.2134 14.5 15.6 14.5Z" fill="#ACACAC"/>
</svg>
