<svg width="25" height="24" viewBox="0 0 25 24" fill="none" xmlns="http://www.w3.org/2000/svg">
<path d="M6.59851 12.6425C6.32439 12.4176 5.96718 12.2955 5.59855 12.3009C5.22992 12.3062 4.87713 12.4385 4.61096 12.6712C4.34478 12.9039 4.18489 13.2199 4.16338 13.5556C4.14187 13.8914 4.26031 14.2222 4.49496 14.4816L7.73794 17.5868C7.87372 17.7168 8.03687 17.8204 8.21761 17.8913C8.39834 17.9623 8.59294 17.9993 8.78972 18C8.98545 18.001 9.17942 17.9662 9.3601 17.8975C9.54078 17.8288 9.70448 17.7277 9.8415 17.6002L19.7457 8.27119C19.88 8.14518 19.9858 7.99628 20.057 7.83298C20.1282 7.66968 20.1635 7.49518 20.1607 7.31945C20.158 7.14372 20.1174 6.9702 20.0412 6.80879C19.965 6.64738 19.8546 6.50125 19.7165 6.37874C19.5784 6.25624 19.4152 6.15974 19.2362 6.09478C19.0572 6.02982 18.8659 5.99766 18.6733 6.00013C18.4807 6.00261 18.2905 6.03967 18.1136 6.10921C17.9366 6.17874 17.7765 6.27939 17.6422 6.4054L8.80433 14.7482L6.59851 12.6425Z" fill="#27AE60"/>
</svg>
