<svg width="25" height="24" viewBox="0 0 25 24" fill="none" xmlns="http://www.w3.org/2000/svg">
<path fill-rule="evenodd" clip-rule="evenodd" d="M6.49585 16.0461C6.04891 16.4931 6.04891 17.2177 6.49585 17.6646C6.94278 18.1116 7.66741 18.1116 8.11435 17.6646L12.1607 13.6183L16.2072 17.6648C16.6541 18.1117 17.3787 18.1117 17.8257 17.6648C18.2726 17.2178 18.2726 16.4932 17.8257 16.0463L13.7792 11.9998L17.8253 7.95364C18.2723 7.5067 18.2723 6.78208 17.8253 6.33514C17.3784 5.88821 16.6538 5.8882 16.2069 6.33514L12.1607 10.3813L8.11468 6.33529C7.66774 5.88836 6.94311 5.88836 6.49618 6.33529C6.04924 6.78223 6.04924 7.50686 6.49618 7.95379L10.5422 11.9998L6.49585 16.0461Z" fill="#DB524E"/>
</svg>
