<svg width="25" height="24" viewBox="0 0 25 24" fill="none" xmlns="http://www.w3.org/2000/svg">
<path fill-rule="evenodd" clip-rule="evenodd" d="M9.16089 13V12C9.16089 11.2044 9.47696 10.4413 10.0396 9.87868C10.6022 9.31607 11.3652 9 12.1609 9H13.1609V5.67C13.1609 5.4923 13.0903 5.32189 12.9647 5.19624C12.839 5.07059 12.6686 5 12.4909 5H5.83089C5.65319 5 5.48278 5.07059 5.35713 5.19624C5.23148 5.32189 5.16089 5.4923 5.16089 5.67V12.33C5.16089 12.5077 5.23148 12.6781 5.35713 12.8038C5.48278 12.9294 5.65319 13 5.83089 13H9.16089ZM9.16089 15H5.83089C5.12357 14.9974 4.44598 14.7152 3.94582 14.2151C3.44567 13.7149 3.16352 13.0373 3.16089 12.33V5.67C3.16352 4.96268 3.44567 4.28509 3.94582 3.78494C4.44598 3.28478 5.12357 3.00263 5.83089 3H12.4909C13.1982 3.00263 13.8758 3.28478 14.376 3.78494C14.8761 4.28509 15.1583 4.96268 15.1609 5.67V9H18.1609C18.9565 9 19.7196 9.31607 20.2822 9.87868C20.8448 10.4413 21.1609 11.2044 21.1609 12V18C21.1609 18.7957 20.8448 19.5587 20.2822 20.1213C19.7196 20.6839 18.9565 21 18.1609 21H12.1609C11.3652 21 10.6022 20.6839 10.0396 20.1213C9.47696 19.5587 9.16089 18.7957 9.16089 18V15ZM11.4538 11.2929C11.6413 11.1054 11.8957 11 12.1609 11H18.1609C18.4261 11 18.6805 11.1054 18.868 11.2929C19.0555 11.4804 19.1609 11.7348 19.1609 12V18C19.1609 18.2652 19.0555 18.5196 18.868 18.7071C18.6805 18.8946 18.4261 19 18.1609 19H12.1609C11.8957 19 11.6413 18.8946 11.4538 18.7071C11.2662 18.5196 11.1609 18.2652 11.1609 18V12C11.1609 11.7348 11.2662 11.4804 11.4538 11.2929Z" fill="#8D8D8D"/>
</svg>
