<svg width="56" height="56" viewBox="0 0 57 57" fill="none" xmlns="http://www.w3.org/2000/svg">
<path fill-rule="evenodd" clip-rule="evenodd" d="M4.73221 25.0256H52.0508C52.0457 18.9949 51.9449 15.8814 49.9722 13.9087C47.8933 11.8298 44.5473 11.8298 37.8553 11.8298H18.9277C12.2357 11.8298 8.88977 11.8298 6.81085 13.9087C4.83817 15.8814 4.73736 18.9949 4.73221 25.0256ZM52.0511 27.0256H4.73193V33.1234C4.73193 39.8154 4.73193 43.1613 6.81085 45.2403C8.88977 47.3192 12.2357 47.3192 18.9277 47.3192H37.8553C44.5473 47.3192 47.8933 47.3192 49.9722 45.2403C52.0511 43.1613 52.0511 39.8154 52.0511 33.1234V27.0256ZM16.5617 36.8553C16.0094 36.8553 15.5617 37.3031 15.5617 37.8553C15.5617 38.4076 16.0094 38.8553 16.5617 38.8553H16.5854C17.1377 38.8553 17.5854 38.4076 17.5854 37.8553C17.5854 37.3031 17.1377 36.8553 16.5854 36.8553H16.5617Z" fill="black"/>
</svg>
