<svg width="25" height="25" viewBox="0 0 25 25" fill="none" xmlns="http://www.w3.org/2000/svg">
<rect x="4.07593" y="4.07593" width="16.3033" height="16.3036" fill="white" fill-opacity="0.01"/>
<path d="M7.68957 13.9278L7.12208 16.0464L5.0479 16.0903C4.42802 14.9405 4.07642 13.625 4.07642 12.2271C4.07642 10.8754 4.40516 9.60064 4.98787 8.47821H4.98832L6.83492 8.81676L7.64385 10.6523C7.47454 11.1459 7.38226 11.6758 7.38226 12.2271C7.38232 12.8255 7.49072 13.3989 7.68957 13.9278Z" fill="#FBBB00"/>
<path d="M20.2375 10.7047C20.3311 11.1978 20.3799 11.707 20.3799 12.2275C20.3799 12.8111 20.3186 13.3804 20.2017 13.9295C19.8048 15.7982 18.768 17.4299 17.3316 18.5846L17.3311 18.5841L15.0052 18.4654L14.6761 16.4104C15.6292 15.8515 16.374 14.9767 16.7664 13.9295H12.4075V10.7047H16.83H20.2375Z" fill="#518EF8"/>
<path d="M17.3307 18.5846L17.3312 18.5851C15.9342 19.7079 14.1597 20.3798 12.2279 20.3798C9.12355 20.3798 6.42456 18.6446 5.04773 16.0912L7.68941 13.9287C8.37781 15.766 10.1501 17.0739 12.2279 17.0739C13.121 17.0739 13.9577 16.8324 14.6756 16.411L17.3307 18.5846Z" fill="#28B446"/>
<path d="M17.4315 5.95262L14.7907 8.11462C14.0477 7.65016 13.1694 7.38186 12.2284 7.38186C10.1035 7.38186 8.29808 8.74973 7.64416 10.6529L4.9886 8.47878H4.98816C6.34484 5.86305 9.07787 4.07593 12.2284 4.07593C14.2062 4.07593 16.0198 4.78048 17.4315 5.95262Z" fill="#F14336"/>
</svg>
