<svg width="24" height="24" viewBox="0 0 24 24" fill="none" xmlns="http://www.w3.org/2000/svg">
<path d="M2 11.682C2 9.98994 2 9.14392 2.39209 8.40027C2.78418 7.65661 3.52052 7.10603 4.99322 6.00486L6.42179 4.93669C9.08367 2.94634 10.4146 1.95117 12 1.95117C13.5854 1.95117 14.9163 2.94634 17.5782 4.93669L19.0068 6.00486C20.4795 7.10603 21.2158 7.65661 21.6079 8.40027C22 9.14392 22 9.98994 22 11.682V16.9664C22 19.3162 22 20.4912 21.1632 21.2212C20.3263 21.9512 18.9795 21.9512 16.2857 21.9512H7.71429C5.02055 21.9512 3.67368 21.9512 2.83684 21.2212C2 20.4912 2 19.3162 2 16.9664V11.682Z" stroke="#6A00FF" stroke-width="1.45"/>
<path d="M14.5 21V16C14.5 15.4477 14.0523 15 13.5 15H10.5C9.94772 15 9.5 15.4477 9.5 16V21" stroke="#6A00FF" stroke-width="1.45" stroke-linecap="round" stroke-linejoin="round"/>
</svg>
