<svg width="24" height="24" viewBox="0 0 25 24" fill="none" xmlns="http://www.w3.org/2000/svg">
<path fill-rule="evenodd" clip-rule="evenodd" d="M13.2429 4.54741C12.7732 4.23354 12.2268 4.23354 11.7571 4.54741L11.7401 4.55855L5.56101 8.50868C4.87822 8.94426 4.5 9.69594 4.5 10.4492V18.8881C4.5 19.6848 5.12926 20.312 5.91791 20.312H19.0821C19.8707 20.312 20.5 19.6848 20.5 18.8881V10.4492C20.5 9.6702 20.0879 8.97184 19.4195 8.49625L13.2599 4.55855L13.2429 4.54741ZM14.345 2.87848C13.2073 2.12319 11.7927 2.12319 10.655 2.87849L4.48456 6.82307C4.4847 6.82298 4.48442 6.82316 4.48456 6.82307C3.19746 7.64438 2.5 9.04793 2.5 10.4492V18.8881C2.5 20.7846 4.01999 22.312 5.91791 22.312H19.0821C20.98 22.312 22.5 20.7846 22.5 18.8881V10.4492C22.5 8.90031 21.6651 7.62863 20.552 6.84757C20.5403 6.83931 20.5283 6.83132 20.5162 6.82358L14.345 2.87848Z" fill="#7E9FFF"/>
</svg>
