<svg width="70" height="70" viewBox="0 0 70 70" fill="none" xmlns="http://www.w3.org/2000/svg">
<path d="M48.1543 14.6125L42.4376 8.89584C38.3543 4.81251 31.6459 4.81251 27.5626 8.89584L21.8459 14.6125C20.7084 15.75 20.7084 17.6167 21.8459 18.7542L32.9584 29.8667C34.0959 31.0042 35.9334 31.0042 37.0709 29.8667L48.1834 18.7542C49.2918 17.6167 49.2918 15.75 48.1543 14.6125Z" fill="#292D32"/>
<path d="M14.6125 21.8458L8.89587 27.5625C4.81254 31.6458 4.81254 38.3542 8.89587 42.4375L14.6125 48.1542C15.75 49.2917 17.5875 49.2917 18.725 48.1542L29.8375 37.0417C30.975 35.9042 30.975 34.0667 29.8375 32.9292L18.7542 21.8458C17.6167 20.7083 15.75 20.7083 14.6125 21.8458Z" fill="#292D32"/>
<path d="M61.1042 27.5625L55.3876 21.8458C54.2501 20.7083 52.4126 20.7083 51.2751 21.8458L40.1626 32.9583C39.0251 34.0958 39.0251 35.9333 40.1626 37.0708L51.2751 48.1833C52.4126 49.3208 54.2501 49.3208 55.3876 48.1833L61.1042 42.4667C65.1876 38.3542 65.1876 31.6458 61.1042 27.5625Z" fill="#292D32"/>
<path d="M21.8458 55.3875L27.5625 61.1042C31.6458 65.1875 38.3542 65.1875 42.4375 61.1042L48.1542 55.3875C49.2917 54.25 49.2917 52.4125 48.1542 51.275L37.0417 40.1625C35.9042 39.025 34.0667 39.025 32.9292 40.1625L21.8167 51.275C20.7083 52.3833 20.7083 54.25 21.8458 55.3875Z" fill="#292D32"/>
</svg>
