<svg width="24" height="24" viewBox="0 0 25 24" fill="none" xmlns="http://www.w3.org/2000/svg">
<path d="M18.2 2H11.7C11.1 2 10.7 2.4 10.7 3C10.7 3.6 11.1 4 11.7 4H18.2C19.5 4 20.5 5 20.5 6.3V17.8C20.5 19.1 19.5 20.1 18.2 20.1H17.2L9.3 2.6C9.2 2.2 8.8 2 8.4 2H6.8C4.4 2 2.5 3.9 2.5 6.3V17.8C2.5 20.1 4.4 22 6.8 22H16.6H18.2C20.6 22 22.5 20.1 22.5 17.7V6.3C22.5 3.9 20.6 2 18.2 2ZM6.8 4H7.8L11.2 11.5L4.5 14.9V6.3C4.5 5 5.5 4 6.8 4ZM6.8 20C5.5 20 4.5 19 4.5 17.7V17.1L12 13.3L15 20H6.8Z" fill="#ACACAC"/>
</svg>
