<svg width="70" height="70" viewBox="0 0 70 70" fill="none" xmlns="http://www.w3.org/2000/svg">
<path d="M49.5834 7.08749H20.4167C11.6667 7.08749 5.83337 12.9208 5.83337 21.6708V39.1708C5.83337 47.9208 11.6667 53.7542 20.4167 53.7542V59.9667C20.4167 62.3 23.0125 63.7 24.9375 62.3875L37.9167 53.7542H49.5834C58.3334 53.7542 64.1667 47.9208 64.1667 39.1708V21.6708C64.1667 12.9208 58.3334 7.08749 49.5834 7.08749ZM35 42.5833C33.775 42.5833 32.8125 41.5917 32.8125 40.3958C32.8125 39.2 33.775 38.2083 35 38.2083C36.225 38.2083 37.1875 39.2 37.1875 40.3958C37.1875 41.5917 36.225 42.5833 35 42.5833ZM38.675 30.4792C37.5375 31.2375 37.1875 31.7333 37.1875 32.55V33.1625C37.1875 34.3583 36.1959 35.35 35 35.35C33.8042 35.35 32.8125 34.3583 32.8125 33.1625V32.55C32.8125 29.1667 35.2917 27.5042 36.225 26.8625C37.3042 26.1333 37.6542 25.6375 37.6542 24.8792C37.6542 23.4208 36.4584 22.225 35 22.225C33.5417 22.225 32.3459 23.4208 32.3459 24.8792C32.3459 26.075 31.3542 27.0667 30.1584 27.0667C28.9625 27.0667 27.9709 26.075 27.9709 24.8792C27.9709 21 31.1209 17.85 35 17.85C38.8792 17.85 42.0292 21 42.0292 24.8792C42.0292 28.2042 39.5792 29.8667 38.675 30.4792Z" fill="#292D32"/>
</svg>
