<svg width="25" height="24" viewBox="0 0 25 24" fill="none" xmlns="http://www.w3.org/2000/svg">
<path d="M4.16089 14.75C2.64089 14.75 1.41089 13.52 1.41089 12C1.41089 10.48 2.64089 9.25 4.16089 9.25C5.68089 9.25 6.91089 10.48 6.91089 12C6.91089 13.52 5.68089 14.75 4.16089 14.75Z" fill="#292D32"/>
<path d="M20.1609 14.75C18.6409 14.75 17.4109 13.52 17.4109 12C17.4109 10.48 18.6409 9.25 20.1609 9.25C21.6809 9.25 22.9109 10.48 22.9109 12C22.9109 13.52 21.6809 14.75 20.1609 14.75Z" fill="#292D32"/>
<path d="M12.1609 14.75C10.6409 14.75 9.41089 13.52 9.41089 12C9.41089 10.48 10.6409 9.25 12.1609 9.25C13.6809 9.25 14.9109 10.48 14.9109 12C14.9109 13.52 13.6809 14.75 12.1609 14.75Z" fill="#292D32"/>
</svg>
