<svg width="21" height="20" viewBox="0 0 21 20" fill="none" xmlns="http://www.w3.org/2000/svg">
<rect x="0.160889" width="20" height="20" rx="10" fill="#27AE60"/>
<path d="M7.07135 9.30885C6.86307 9.52478 6.52538 9.52478 6.3171 9.30885C6.10882 9.09292 6.10882 8.74283 6.3171 8.5269L9.40664 5.32389C9.8232 4.89204 10.4986 4.89204 10.9151 5.32389L14.0047 8.5269C14.213 8.74283 14.213 9.09292 14.0047 9.30885C13.7964 9.52478 13.4587 9.52478 13.2504 9.30885L10.6942 6.65876V14.4471C10.6942 14.7524 10.4554 15 10.1609 15C9.86634 15 9.62756 14.7524 9.62756 14.4471V6.65876L7.07135 9.30885Z" fill="white"/>
</svg>
