<svg width="24" height="24" viewBox="0 0 24 24" fill="none" xmlns="http://www.w3.org/2000/svg">
<g clip-path="url(#clip0_7997_193992)">
<path d="M15.9588 14C16.6659 13.1797 17.1373 12.125 17.1373 11.0703C17.1373 8.49218 15.016 6.5 12.5411 6.5C10.0662 6.5 7.94479 8.49218 7.94479 10.9531C7.94479 12.125 8.4162 13.1797 9.12333 13.8828C7.59123 14.7031 6.4127 15.875 5.70558 17.5156C5.35202 18.3359 5.46987 19.3906 5.94128 20.2109C6.53055 21.0312 7.47338 21.5 8.4162 21.5H16.5481C17.4909 21.5 18.4337 21.0312 19.023 20.2109C19.6123 19.3906 19.6123 18.4531 19.2587 17.5156C18.6694 15.9922 17.4909 14.7031 15.9588 14ZM10.3018 10.9531C10.3018 9.78128 11.3625 8.84374 12.5411 8.84374C13.7196 8.84374 14.7803 9.78128 14.7803 11.0703C14.7803 12.3594 13.7196 13.1797 12.5411 13.1797C11.3625 13.1797 10.3018 12.2422 10.3018 10.9531ZM17.1373 18.9219C17.0195 19.0391 16.7838 19.1563 16.6659 19.1563H8.4162C8.1805 19.1563 8.06264 19.0391 7.94479 18.9219C7.82694 18.9219 7.82694 18.6875 7.82694 18.4531C8.65191 16.5781 10.4197 15.4063 12.5411 15.4063C14.6624 15.4063 16.4302 16.5781 17.2552 18.4531C17.2552 18.6875 17.2552 18.9219 17.1373 18.9219Z" fill="black"/>
<path d="M7.21677 14.25C7.21677 13.625 6.78903 13 6.14742 13H2.61854C3.04629 11.75 4.11564 11 5.29193 11C7.10984 11 8.5 9.37498 8.5 7.24999C8.5 5.12499 7.0029 3.5 5.29193 3.5C3.58096 3.5 2.08387 5.12499 2.08387 7.24999C2.08387 7.99999 2.29774 8.74998 2.72548 9.37498C1.76306 10 1.01451 10.875 0.693703 12C0.372895 12.75 0.47983 13.625 0.800638 14.375C1.22838 15.125 1.86999 15.5 2.61854 15.5H6.04048C6.6821 15.5 7.21677 15 7.21677 14.25ZM4.22258 7.24999C4.22258 6.49999 4.75726 5.99999 5.29193 5.99999C5.82661 5.99999 6.36129 6.62499 6.36129 7.24999C6.36129 7.99999 5.82661 8.49998 5.29193 8.49998C4.75726 8.49998 4.22258 7.87499 4.22258 7.24999Z" fill="black"/>
<path d="M24.3133 12.0361C23.8852 10.9227 23.136 9.93299 22.2797 9.31443C22.6008 8.69588 22.9219 7.95361 22.9219 7.21134C22.9219 5.23196 21.4235 3.5 19.7109 3.5C17.9984 3.5 16.5 5.10825 16.5 7.21134C16.5 9.31443 17.9984 10.9227 19.7109 10.9227C20.8883 10.9227 21.9586 11.6649 22.2797 13.0258H18.8547C18.2125 13.0258 17.7844 13.5206 17.7844 14.2629C17.7844 14.8814 18.2125 15.5 18.8547 15.5H22.2797C23.0289 15.5 23.6711 15.1289 24.0992 14.3866C24.5274 13.6443 24.6344 12.7783 24.3133 12.0361ZM19.7109 6.09794C20.3531 6.09794 20.7813 6.71649 20.7813 7.33505C20.7813 8.07732 20.2461 8.57216 19.7109 8.57216C19.1758 8.57216 18.6406 7.95361 18.6406 7.33505C18.6406 6.59278 19.0688 6.09794 19.7109 6.09794Z" fill="black"/>
</g>
<defs>
<clipPath id="clip0_7997_193992">
<rect width="24" height="24" fill="white"/>
</clipPath>
</defs>
</svg>
