<svg width="24" height="24" viewBox="0 0 25 24" fill="none" xmlns="http://www.w3.org/2000/svg">
<g clip-path="url(#clip0_8084_194737)">
<path d="M16.4588 14C17.1659 13.1797 17.6373 12.125 17.6373 11.0703C17.6373 8.49218 15.516 6.5 13.0411 6.5C10.5662 6.5 8.44479 8.49218 8.44479 10.9531C8.44479 12.125 8.9162 13.1797 9.62333 13.8828C8.09123 14.7031 6.9127 15.875 6.20558 17.5156C5.85202 18.3359 5.96987 19.3906 6.44128 20.2109C7.03055 21.0312 7.97338 21.5 8.9162 21.5H17.0481C17.9909 21.5 18.9337 21.0312 19.523 20.2109C20.1123 19.3906 20.1123 18.4531 19.7587 17.5156C19.1694 15.9922 17.9909 14.7031 16.4588 14ZM10.8018 10.9531C10.8018 9.78128 11.8625 8.84374 13.0411 8.84374C14.2196 8.84374 15.2803 9.78128 15.2803 11.0703C15.2803 12.3594 14.2196 13.1797 13.0411 13.1797C11.8625 13.1797 10.8018 12.2422 10.8018 10.9531ZM17.6373 18.9219C17.5195 19.0391 17.2838 19.1563 17.1659 19.1563H8.9162C8.6805 19.1563 8.56264 19.0391 8.44479 18.9219C8.32694 18.9219 8.32694 18.6875 8.32694 18.4531C9.15191 16.5781 10.9197 15.4063 13.0411 15.4063C15.1624 15.4063 16.9302 16.5781 17.7552 18.4531C17.7552 18.6875 17.7552 18.9219 17.6373 18.9219Z" fill="#7E9FFF"/>
<path d="M7.71677 14.25C7.71677 13.625 7.28903 13 6.64742 13H3.11854C3.54629 11.75 4.61564 11 5.79193 11C7.60984 11 9 9.37498 9 7.24999C9 5.12499 7.5029 3.5 5.79193 3.5C4.08096 3.5 2.58387 5.12499 2.58387 7.24999C2.58387 7.99999 2.79774 8.74998 3.22548 9.37498C2.26306 10 1.51451 10.875 1.1937 12C0.872895 12.75 0.97983 13.625 1.30064 14.375C1.72838 15.125 2.36999 15.5 3.11854 15.5H6.54048C7.1821 15.5 7.71677 15 7.71677 14.25ZM4.72258 7.24999C4.72258 6.49999 5.25726 5.99999 5.79193 5.99999C6.32661 5.99999 6.86129 6.62499 6.86129 7.24999C6.86129 7.99999 6.32661 8.49998 5.79193 8.49998C5.25726 8.49998 4.72258 7.87499 4.72258 7.24999Z" fill="#7E9FFF"/>
<path d="M24.8133 12.0361C24.3852 10.9227 23.636 9.93299 22.7797 9.31443C23.1008 8.69588 23.4219 7.95361 23.4219 7.21134C23.4219 5.23196 21.9235 3.5 20.2109 3.5C18.4984 3.5 17 5.10825 17 7.21134C17 9.31443 18.4984 10.9227 20.2109 10.9227C21.3883 10.9227 22.4586 11.6649 22.7797 13.0258H19.3547C18.7125 13.0258 18.2844 13.5206 18.2844 14.2629C18.2844 14.8814 18.7125 15.5 19.3547 15.5H22.7797C23.5289 15.5 24.1711 15.1289 24.5992 14.3866C25.0274 13.6443 25.1344 12.7783 24.8133 12.0361ZM20.2109 6.09794C20.8531 6.09794 21.2813 6.71649 21.2813 7.33505C21.2813 8.07732 20.7461 8.57216 20.2109 8.57216C19.6758 8.57216 19.1406 7.95361 19.1406 7.33505C19.1406 6.59278 19.5688 6.09794 20.2109 6.09794Z" fill="#7E9FFF"/>
</g>
<defs>
<clipPath id="clip0_8084_194737">
<rect width="24" height="24" fill="white" transform="translate(0.5)"/>
</clipPath>
</defs>
</svg>
