<svg fill="none" height="56" viewBox="0 0 24 24" width="56" xmlns="http://www.w3.org/2000/svg"><path d="m20 5c.5523 0 1-.44772 1-1s-.4477-1-1-1zm-14.49999 0h14.49999v-2h-14.49999zm0 5h7.99999v-2h-7.99999zm-1.5-3.5c0-.82843.67157-1.5 1.5-1.5v-2c-1.933 0-3.5 1.567-3.5 3.5zm-2 0c0 1.933 1.567 3.5 3.5 3.5v-2c-.82843 0-1.5-.67157-1.5-1.5z" fill="#222"/><g stroke="#222"><path d="m3 12v-5.5" stroke-width="2"/><path d="m3 8.5h-.5v.5 10 .0329c-.00002.4433-.00005.8252.04107 1.131.04407.3278.14344.6419.39827.8968.25483.2548.56901.3542.89677.3982.30582.0411.68773.0411 1.13097.0411h.03292 14 .0329c.4433 0 .8252 0 1.131-.0411.3278-.044.6419-.1434.8968-.3982.2548-.2549.3542-.569.3982-.8968.0411-.3058.0411-.6877.0411-1.131 0-.0109 0-.0219 0-.0329v-1-.5h-.5-3c-1.3807 0-2.5-1.1193-2.5-2.5s1.1193-2.5 2.5-2.5h3 .5v-.5-1-.0329c0-.4433 0-.8252-.0411-1.131-.044-.32775-.1434-.64193-.3982-.89676-.2549-.25483-.569-.3542-.8968-.39827-.3058-.04112-.6877-.0411-1.131-.04107h-.0329z" fill="#222"/></g></svg>